<svg width="40" height="40" viewBox="0 0 40 40" fill="none" xmlns="http://www.w3.org/2000/svg">
<path d="M34.0625 0H26.8125L20.5625 11.75L24.125 18.5625L34.0625 0ZM23.375 19.0625L13.1875 0H5.9375L16.125 19.0625H23.375ZM21.5 28.4375L20 25.375L18.5 28.4375L15.125 28.875L17.5625 31.25L17 34.625L20 33.0625L23 34.625L22.4375 31.25L24.875 28.875L21.5 28.4375Z" fill="#0171B9"/>
<path d="M23.6875 22H24.375C24.875 22 25.3125 21.5625 25.3125 21C25.3125 20.4375 24.875 20 24.375 20H15.625C15.125 20 14.6875 20.4375 14.6875 21C14.6875 21.5625 15.125 22 15.625 22H16.3125C13 23.4375 10.625 26.75 10.625 30.625C10.625 35.8125 14.8125 40 20 40C25.1875 40 29.375 35.8125 29.375 30.625C29.375 26.75 27.0625 23.4375 23.6875 22ZM20 37.75C16.0625 37.75 12.875 34.5625 12.875 30.625C12.875 26.6875 16.0625 23.5 20 23.5C23.9375 23.5 27.125 26.6875 27.125 30.625C27.125 34.5625 23.9375 37.75 20 37.75Z" fill="#2C3A45"/>
</svg>
