<svg width="40" height="40" viewBox="0 0 40 40" fill="none" xmlns="http://www.w3.org/2000/svg">
<path d="M34.1999 25.35L31.1999 22.3333V14.9C31.2398 12.1397 30.2797 9.45817 28.4968 7.35055C26.7139 5.24293 24.2286 3.85155 21.4999 3.43332C19.9163 3.22477 18.3064 3.35634 16.7776 3.81928C15.2488 4.28221 13.8364 5.06586 12.6345 6.11792C11.4325 7.16999 10.4688 8.46628 9.8076 9.92031C9.14637 11.3743 8.80283 12.9527 8.79992 14.55V22.3333L5.79992 25.35C5.42309 25.7331 5.16756 26.2188 5.06525 26.7463C4.96295 27.2739 5.01841 27.8199 5.22471 28.3161C5.43102 28.8122 5.779 29.2366 6.22517 29.5361C6.67134 29.8356 7.19589 29.997 7.73325 30H13.3333V30.5667C13.4111 32.2587 14.1565 33.8508 15.4061 34.9942C16.6557 36.1376 18.3077 36.739 19.9999 36.6667C21.6922 36.739 23.3441 36.1376 24.5937 34.9942C25.8433 33.8508 26.5887 32.2587 26.6666 30.5667V30H32.2666C32.8039 29.997 33.3285 29.8356 33.7747 29.5361C34.2208 29.2366 34.5688 28.8122 34.7751 28.3161C34.9814 27.8199 35.0369 27.2739 34.9346 26.7463C34.8323 26.2188 34.5767 25.7331 34.1999 25.35ZM23.3333 30.5667C23.2408 31.3683 22.8427 32.1034 22.2217 32.6188C21.6008 33.1342 20.8049 33.3901 19.9999 33.3333C19.1949 33.3901 18.3991 33.1342 17.7781 32.6188C17.1572 32.1034 16.759 31.3683 16.6666 30.5667V30H23.3333V30.5667Z" fill="#F7A928"/>
</svg>
