<svg width="26" height="26" viewBox="0 0 26 26" fill="none" xmlns="http://www.w3.org/2000/svg">
<path fill-rule="evenodd" clip-rule="evenodd" d="M18.6875 13C15.5488 13 13 15.5488 13 18.6875C13 21.8262 15.5488 24.375 18.6875 24.375C21.8262 24.375 24.375 21.8262 24.375 18.6875C24.375 15.5488 21.8262 13 18.6875 13ZM3.25 21.125H10.5625C10.778 21.125 10.9847 21.0394 11.137 20.887C11.2894 20.7347 11.375 20.528 11.375 20.3125C11.375 20.097 11.2894 19.8903 11.137 19.738C10.9847 19.5856 10.778 19.5 10.5625 19.5H3.25V4.0625C3.25 3.84701 3.3356 3.64035 3.48798 3.48798C3.64035 3.3356 3.84701 3.25 4.0625 3.25H8.9375V9.75C8.93757 9.88844 8.97302 10.0246 9.04048 10.1455C9.10794 10.2664 9.20517 10.368 9.32295 10.4408C9.44072 10.5135 9.57514 10.555 9.71344 10.5612C9.85175 10.5675 9.98935 10.5383 10.1132 10.4764L13 9.03337L15.8868 10.4764C16.0107 10.5383 16.1483 10.5675 16.2866 10.5612C16.4249 10.555 16.5593 10.5135 16.6771 10.4408C16.7948 10.368 16.8921 10.2664 16.9595 10.1455C17.027 10.0246 17.0624 9.88844 17.0625 9.75V3.25H21.9375C22.153 3.25 22.3597 3.3356 22.512 3.48798C22.6644 3.64035 22.75 3.84701 22.75 4.0625V12.1875C22.75 12.403 22.8356 12.6097 22.988 12.762C23.1403 12.9144 23.347 13 23.5625 13C23.778 13 23.9847 12.9144 24.137 12.762C24.2894 12.6097 24.375 12.403 24.375 12.1875V4.0625C24.375 2.717 23.283 1.625 21.9375 1.625H4.0625C2.717 1.625 1.625 2.717 1.625 4.0625V21.9375C1.625 23.283 2.717 24.375 4.0625 24.375H12.1875C12.403 24.375 12.6097 24.2894 12.762 24.137C12.9144 23.9847 13 23.778 13 23.5625C13 23.347 12.9144 23.1403 12.762 22.988C12.6097 22.8356 12.403 22.75 12.1875 22.75H4.0625C3.84701 22.75 3.64035 22.6644 3.48798 22.512C3.3356 22.3597 3.25 22.153 3.25 21.9375V21.125ZM18.6875 14.625C20.93 14.625 22.75 16.445 22.75 18.6875C22.75 20.93 20.93 22.75 18.6875 22.75C16.445 22.75 14.625 20.93 14.625 18.6875C14.625 16.445 16.445 14.625 18.6875 14.625ZM16.0818 19.2619L17.7068 20.8869C17.7822 20.9625 17.8717 21.0224 17.9703 21.0632C18.0689 21.1041 18.1745 21.1252 18.2812 21.1252C18.388 21.1252 18.4936 21.1041 18.5922 21.0632C18.6908 21.0224 18.7803 20.9625 18.8557 20.8869L21.2932 18.4494C21.4412 18.2962 21.5231 18.091 21.5212 17.8779C21.5194 17.6649 21.4339 17.4611 21.2833 17.3105C21.1326 17.1598 20.9289 17.0744 20.7158 17.0725C20.5028 17.0707 20.2976 17.1526 20.1443 17.3006L18.2812 19.1636L17.2307 18.1131C17.0774 17.9651 16.8722 17.8832 16.6592 17.885C16.4461 17.8869 16.2424 17.9723 16.0917 18.123C15.9411 18.2736 15.8556 18.4774 15.8538 18.6904C15.8519 18.9035 15.9338 19.1087 16.0818 19.2619ZM15.4375 3.25H10.5625V8.43538L12.6368 7.39862C12.7496 7.34215 12.8739 7.31274 13 7.31274C13.1261 7.31274 13.2504 7.34215 13.3632 7.39862L15.4375 8.43538V3.25Z" fill="black"/>
</svg>
