<svg width="45" height="45" viewBox="0 0 45 45" fill="none" xmlns="http://www.w3.org/2000/svg">
<g opacity="0.25">
<path d="M22.5 27.9961C21.3744 27.9961 20.2741 27.6623 19.3382 27.0369C18.4023 26.4116 17.6728 25.5228 17.2421 24.4828C16.8113 23.4429 16.6986 22.2986 16.9182 21.1946C17.1378 20.0907 17.6798 19.0766 18.4757 18.2807C19.2717 17.4847 20.2857 16.9427 21.3897 16.7231C22.4937 16.5035 23.638 16.6162 24.6779 17.047C25.7178 17.4777 26.6067 18.2072 27.232 19.1431C27.8574 20.079 28.1911 21.1793 28.1911 22.3049C28.1895 23.8138 27.5893 25.2604 26.5224 26.3273C25.4555 27.3943 24.0089 27.9944 22.5 27.9961ZM22.5 18.0538C21.6592 18.0538 20.8373 18.3031 20.1382 18.7702C19.4391 19.2373 18.8942 19.9013 18.5724 20.6781C18.2507 21.4549 18.1665 22.3096 18.3305 23.1343C18.4946 23.9589 18.8994 24.7164 19.494 25.3109C20.0885 25.9055 20.846 26.3104 21.6706 26.4744C22.4953 26.6384 23.35 26.5542 24.1268 26.2325C24.9036 25.9107 25.5676 25.3658 26.0347 24.6667C26.5018 23.9676 26.7511 23.1457 26.7511 22.3049C26.7498 21.1778 26.3015 20.0973 25.5046 19.3004C24.7076 18.5034 23.6271 18.0551 22.5 18.0538ZM17.5869 40.6397C17.3959 40.6397 17.2128 40.5639 17.0778 40.4288C16.9427 40.2938 16.8669 40.1107 16.8669 39.9197V37.3178C16.8669 37.1269 16.9427 36.9437 17.0778 36.8087C17.2128 36.6737 17.3959 36.5978 17.5869 36.5978C17.7778 36.5978 17.961 36.6737 18.096 36.8087C18.231 36.9437 18.3069 37.1269 18.3069 37.3178V39.9197C18.3069 40.1107 18.231 40.2938 18.096 40.4288C17.961 40.5639 17.7778 40.6397 17.5869 40.6397ZM27.4131 40.6397C27.2221 40.6397 27.039 40.5639 26.904 40.4288C26.7689 40.2938 26.6931 40.1107 26.6931 39.9197V37.3178C26.6931 37.1269 26.7689 36.9437 26.904 36.8087C27.039 36.6737 27.2221 36.5978 27.4131 36.5978C27.604 36.5978 27.7872 36.6737 27.9222 36.8087C28.0572 36.9437 28.1331 37.1269 28.1331 37.3178V39.9197C28.1331 40.1107 28.0572 40.2938 27.9222 40.4288C27.7872 40.5639 27.604 40.6397 27.4131 40.6397Z" fill="black"/>
<path d="M30.8407 41.22H14.1592C13.9683 41.22 13.7851 41.1441 13.6501 41.0091C13.5151 40.8741 13.4392 40.6909 13.4392 40.5V35.9365C13.4392 32.2137 16.4682 29.1865 20.1892 29.1865H24.8089C28.5318 29.1865 31.5589 32.215 31.5589 35.9365V40.5C31.5589 40.6906 31.4833 40.8735 31.3487 41.0085C31.2141 41.1434 31.0314 41.2195 30.8407 41.22ZM14.8792 39.78H30.1207V35.9365C30.1188 34.5288 29.5588 33.1793 28.5634 32.1839C27.568 31.1885 26.2185 30.6284 24.8107 30.6265H20.191C18.7833 30.6284 17.4338 31.1885 16.4384 32.1839C15.443 33.1793 14.8829 34.5288 14.881 35.9365L14.8792 39.78Z" fill="black"/>
<path d="M19.9503 30.6306C19.8272 30.6305 19.7062 30.5988 19.5988 30.5386C19.4915 30.4785 19.4013 30.3918 19.337 30.2868C19.2727 30.1819 19.2364 30.0622 19.2315 29.9392C19.2266 29.8162 19.2533 29.694 19.309 29.5843C20.1289 27.9715 19.4242 27.072 19.3941 27.0346C19.3995 27.0414 19.4026 27.0445 19.4026 27.0445L20.4853 26.095C20.5425 26.1603 21.8713 27.7218 20.5929 30.235C20.5329 30.354 20.441 30.4539 20.3276 30.5237C20.2141 30.5936 20.0835 30.6305 19.9503 30.6306ZM25.0492 30.6306C24.9162 30.6306 24.7858 30.5938 24.6725 30.5242C24.5591 30.4546 24.4673 30.355 24.4071 30.2364C23.1286 27.7218 24.4575 26.1603 24.5146 26.0964L25.5973 27.045C25.5973 27.045 25.6005 27.0418 25.6059 27.0351C25.5757 27.0724 24.871 27.972 25.6909 29.5843C25.7468 29.6941 25.7736 29.8164 25.7688 29.9395C25.7639 30.0625 25.7275 30.1823 25.6632 30.2873C25.5988 30.3924 25.5085 30.4791 25.401 30.5393C25.2936 30.5995 25.1724 30.631 25.0492 30.631V30.6306ZM10.6236 23.2911C9.97004 23.2911 9.33116 23.0973 8.78775 22.7342C8.24435 22.3711 7.82082 21.855 7.57073 21.2511C7.32065 20.6473 7.25524 19.9829 7.38277 19.3419C7.51031 18.7009 7.82506 18.1121 8.28723 17.65C8.7494 17.1879 9.33822 16.8733 9.97923 16.7458C10.6202 16.6184 11.2846 16.6839 11.8884 16.934C12.4922 17.1842 13.0083 17.6078 13.3713 18.1513C13.7343 18.6947 13.928 19.3336 13.9279 19.9872C13.927 20.8632 13.5785 21.7031 12.959 22.3225C12.3396 22.9419 11.4996 23.2902 10.6236 23.2911ZM10.6236 18.1228C10.2549 18.1228 9.89441 18.2322 9.58782 18.437C9.28123 18.6419 9.04227 18.9331 8.90116 19.2737C8.76006 19.6144 8.72313 19.9892 8.79507 20.3509C8.86701 20.7125 9.04457 21.0447 9.3053 21.3055C9.56604 21.5662 9.89823 21.7438 10.2599 21.8157C10.6215 21.8876 10.9964 21.8507 11.3371 21.7096C11.6777 21.5685 11.9689 21.3295 12.1737 21.023C12.3786 20.7164 12.4879 20.3559 12.4879 19.9872C12.4875 19.4929 12.2909 19.0189 11.9414 18.6694C11.5918 18.3199 11.1179 18.1233 10.6236 18.1228ZM14.9593 30.6108H6.2883C6.09734 30.6108 5.91421 30.5349 5.77918 30.3999C5.64416 30.2649 5.5683 30.0817 5.5683 29.8908V28.7208C5.58087 27.3882 6.11904 26.1145 7.06577 25.1767C8.0125 24.2389 9.29122 23.7127 10.6238 23.7127C11.9564 23.7127 13.2351 24.2389 14.1819 25.1767C15.1286 26.1145 15.6668 27.3882 15.6793 28.7208V29.8908C15.6793 30.0817 15.6035 30.2649 15.4685 30.3999C15.3334 30.5349 15.1503 30.6108 14.9593 30.6108ZM7.0083 29.1708H14.2393V28.7208C14.2287 27.7689 13.8431 26.8595 13.1662 26.1902C12.4894 25.5208 11.5758 25.1454 10.6238 25.1454C9.67185 25.1454 8.75829 25.5208 8.0814 26.1902C7.40451 26.8595 7.01892 27.7689 7.0083 28.7208V29.1708ZM34.3764 23.2911C33.7228 23.2912 33.0839 23.0974 32.5404 22.7344C31.997 22.3713 31.5734 21.8553 31.3232 21.2515C31.0731 20.6476 31.0076 19.9832 31.1351 19.3422C31.2626 18.7012 31.5773 18.1123 32.0394 17.6502C32.5016 17.188 33.0904 16.8733 33.7314 16.7458C34.3724 16.6184 35.0369 16.6838 35.6407 16.934C36.2445 17.1841 36.7605 17.6077 37.1236 18.1512C37.4867 18.6947 37.6804 19.3336 37.6803 19.9872C37.6793 20.8631 37.3309 21.7029 36.7116 22.3223C36.0922 22.9417 35.2524 23.2901 34.3764 23.2911ZM34.3764 18.1228C34.0076 18.1227 33.6471 18.232 33.3405 18.4368C33.0338 18.6416 32.7948 18.9328 32.6536 19.2734C32.5125 19.6141 32.4755 19.9889 32.5474 20.3506C32.6193 20.7123 32.7968 21.0445 33.0575 21.3053C33.3182 21.5661 33.6504 21.7437 34.0121 21.8157C34.3737 21.8876 34.7486 21.8507 35.0893 21.7097C35.43 21.5686 35.7212 21.3296 35.9261 21.023C36.1309 20.7164 36.2403 20.3559 36.2403 19.9872C36.2397 19.493 36.0431 19.0192 35.6937 18.6697C35.3443 18.3202 34.8706 18.1235 34.3764 18.1228ZM38.7117 30.6108H30.0406C29.8497 30.6108 29.6666 30.5349 29.5315 30.3999C29.3965 30.2649 29.3206 30.0817 29.3206 29.8908V28.7208C29.3332 27.3882 29.8714 26.1145 30.8181 25.1767C31.7648 24.2389 33.0436 23.7127 34.3762 23.7127C35.7088 23.7127 36.9875 24.2389 37.9342 25.1767C38.881 26.1145 39.4191 27.3882 39.4317 28.7208V29.8908C39.4317 30.0817 39.3558 30.2649 39.2208 30.3999C39.0858 30.5349 38.9027 30.6108 38.7117 30.6108ZM30.7606 29.1708H37.9917V28.7208C37.9811 27.7689 37.5955 26.8595 36.9186 26.1902C36.2417 25.5208 35.3281 25.1454 34.3762 25.1454C33.4242 25.1454 32.5106 25.5208 31.8338 26.1902C31.1569 26.8595 30.7713 27.7689 30.7606 28.7208V29.1708ZM25.8849 15.6379C25.7683 15.638 25.6534 15.6097 25.5501 15.5556L22.5 13.95L19.4499 15.5538C19.3311 15.6162 19.1972 15.6442 19.0634 15.6346C18.9295 15.625 18.801 15.5782 18.6924 15.4994C18.5837 15.4207 18.4992 15.3131 18.4485 15.1889C18.3977 15.0647 18.3826 14.9287 18.405 14.7964L18.99 11.4003L16.5226 8.99503C16.4265 8.90136 16.3584 8.78268 16.3262 8.65237C16.2939 8.52207 16.2987 8.38534 16.34 8.25762C16.3813 8.1299 16.4575 8.01628 16.56 7.92958C16.6625 7.84288 16.7872 7.78656 16.92 7.76698L20.3296 7.27198L21.8547 4.18183C21.9141 4.0613 22.0061 3.95981 22.1202 3.88885C22.2344 3.81788 22.3661 3.78027 22.5004 3.78027C22.6348 3.78027 22.7665 3.81788 22.8807 3.88885C22.9948 3.95981 23.0868 4.0613 23.1462 4.18183L24.6712 7.27198L28.0809 7.76698C28.2139 7.78629 28.3387 7.84241 28.4415 7.92899C28.5442 8.01558 28.6206 8.12918 28.6622 8.25694C28.7037 8.38471 28.7086 8.52155 28.6765 8.65198C28.6443 8.78241 28.5762 8.90124 28.48 8.99503L26.0127 11.4003L26.595 14.7964C26.6127 14.8998 26.6076 15.0057 26.5801 15.1069C26.5526 15.208 26.5033 15.302 26.4357 15.3821C26.3681 15.4622 26.2839 15.5266 26.1888 15.5708C26.0938 15.615 25.9902 15.6379 25.8853 15.6379H25.8849ZM22.5 12.42C22.6168 12.4199 22.7318 12.4482 22.8352 12.5023L24.93 13.6021L24.5304 11.2707C24.5106 11.1556 24.5191 11.0374 24.5552 10.9263C24.5912 10.8152 24.6538 10.7146 24.7374 10.633L26.4312 8.98198L24.0912 8.64178C23.9761 8.62468 23.8668 8.57993 23.7727 8.51135C23.6787 8.44278 23.6027 8.35242 23.5512 8.24803L22.5 6.12673L21.4533 8.24803C21.4014 8.35237 21.3249 8.44254 21.2305 8.51082C21.136 8.57909 21.0264 8.62341 20.911 8.63998L18.571 8.98018L20.2648 10.6312C20.3485 10.7128 20.411 10.8134 20.4471 10.9245C20.4832 11.0356 20.4917 11.1538 20.4718 11.2689L20.07 13.6021L22.1634 12.501C22.2674 12.4471 22.3829 12.4193 22.5 12.42Z" fill="black"/>
</g>
</svg>
