<svg xmlns="http://www.w3.org/2000/svg" version="1.1" xmlns:xlink="http://www.w3.org/1999/xlink" xmlns:svgjs="http://svgjs.dev/svgjs" viewBox="0 0 800 800"><defs><filter id="uuunion-blur" x="-100%" y="-100%" width="400%" height="400%" color-interpolation-filters="sRGB">
        <feGaussianBlur in="SourceGraphic" stdDeviation="1.5 0" result="blur"></feGaussianBlur>
        <feDropShadow stdDeviation="12.307692307692308" in="blur" dx="10" dy="10" flood-color="hsl(316, 73%, 52%)" flood-opacity="0.25" x="0%" y="0%" width="100%" height="100%"></feDropShadow>
      </filter><filter id="uuunion-blur2" x="-100%" y="-100%" width="400%" height="400%" color-interpolation-filters="sRGB">
        <feGaussianBlur in="SourceGraphic" stdDeviation="1.5 0" result="blur"></feGaussianBlur>
        <feDropShadow stdDeviation="12.307692307692308" in="blur" dx="-10" dy="-10" flood-color="hsl(316, 73%, 52%)" flood-opacity="0.25" x="0%" y="0%" width="100%" height="100%"></feDropShadow>
      </filter><linearGradient gradientTransform="rotate(0, 0.5, 0.5)" x1="50%" y1="0%" x2="50%" y2="100%" id="uuunion-grad"><stop stop-color="hsl(37, 99%, 67%)" offset="10%"></stop><stop stop-color="hsl(316, 73%, 52%)" offset="90%"></stop></linearGradient><linearGradient gradientTransform="rotate(135, 0.5, 0.5)" x1="50%" y1="0%" x2="50%" y2="100%" id="uuunion-grad2"><stop stop-color="hsl(37, 99%, 67%)" offset="25%"></stop><stop stop-color="hsl(316, 73%, 52%)" offset="100%"></stop></linearGradient><linearGradient gradientTransform="rotate(333, 0.5, 0.5)" x1="50%" y1="0%" x2="50%" y2="100%" id="uuunion-grad3"><stop stop-color="hsl(37, 99%, 67%)" offset="0%"></stop><stop stop-color="hsl(316, 73%, 52%)" offset="75%"></stop></linearGradient></defs><path d="M-79.27 -88.16Q-64.53 -85.46 -49.79 -81.34 -35.05 -76.86 -20.31 -73.21 -5.57 -71.33 9.17 -71.71 23.91 -74.27 38.65 -78.32 53.39 -82.81 68.13 -86.57 82.87 -88.6 97.61 -88.38 112.35 -85.97 127.09 -82 141.84 -77.5 156.58 -73.65 171.32 -71.47 186.06 -71.51 200.8 -73.77 215.54 -77.67 230.28 -82.17 245.02 -86.1 259.76 -88.44 274.51 -88.56 289.25 -86.45 303.99 -82.65 318.73 -78.15 333.47 -74.14 348.21 -71.66 362.95 -71.36 377.69 -73.32 392.44 -77.03 407.18 -81.51 421.92 -85.6 436.66 -88.22 451.4 -88.69 466.14 -86.89 480.88 -83.28 495.62 -78.81 510.36 -74.65 525.11 -71.89 539.85 -71.25 554.59 -72.9 569.33 -76.4 584.07 -80.85 598.81 -85.07 613.55 -87.96 628.29 -88.77 643.03 -87.28 657.78 -83.89 672.52 -79.48 687.26 -75.2 702 -72.18 716.74 -71.2 731.48 -72.52 746.22 -75.8 760.96 -80.18 775.7 -84.5 790.45 -87.65 805.19 -88.79 819.93 -87.64 834.67 -84.48 849.41 -80.15 864.15 -75.78 857.79 -60.67 855.93 -45.56 858.96 -30.45 866.27 -15.35 876.36 -0.24 887.19 14.86 896.56 29.97 902.56 45.07 903.98 60.18 900.54 75.29 892.92 90.4 882.67 105.51 871.88 120.61 862.74 135.72 857.11 150.83 856.12 165.94 859.98 181.04 867.9 196.15 878.28 211.26 889.01 226.37 897.91 241.48 903.17 256.58 903.72 271.69 899.46 286.8 891.24 301.91 880.74 317.01 870.09 332.12 861.45 347.23 856.57 362.34 856.46 377.45 861.12 392.55 869.62 407.66 880.22 422.77 890.78 437.88 899.15 452.98 903.63 468.09 903.3 483.2 898.25 498.31 889.49 513.42 878.8 528.52 868.35 543.63 860.27 558.74 856.19 573.85 856.95 588.96 862.39 604.06 871.4 619.17 882.16 634.28 892.48 649.39 900.26 664.49 903.93 679.6 902.74 694.71 896.93 709.82 887.68 724.93 876.87 740.03 866.69 755.14 859.22 770.25 855.97 785.36 857.59 800.46 863.77 815.57 873.24 830.68 884.08 845.79 894.09 860.9 894.96 877.8 873.29 868.17 857.9 859.85 842.5 856.8 827.11 859.81 811.72 868.11 796.32 879.52 780.93 891.05 765.54 899.69 750.14 903.18 734.75 900.6 719.36 892.63 703.96 881.36 688.57 869.73 673.18 860.78 657.78 856.87 642.39 859 627 866.63 611.6 877.75 596.21 889.46 580.82 898.7 565.42 903.04 550.03 901.35 534.64 894.08 519.24 883.12 503.85 871.34 488.45 861.83 473.06 857.07 457.67 858.31 442.27 865.22 426.88 876 411.49 887.82 396.09 897.6 380.7 902.77 365.31 901.98 349.91 895.44 334.52 884.86 319.13 873.01 303.73 862.98 288.34 857.41 272.95 857.74 257.55 863.9 242.16 874.27 226.77 886.13 211.37 896.39 195.98 902.36 180.58 902.48 165.19 896.72 149.8 886.58 134.4 874.71 119.01 864.23 103.62 857.88 88.22 857.31 72.83 862.67 57.44 872.57 42.04 884.41 26.65 895.1 11.26 901.83 -4.13 902.85 -19.52 897.89 -34.91 888.25 -50.31 876.45 -65.7 865.58 -81.09 858.48 -80.96 843.68 -80.64 828.89 -80.18 814.1 -79.69 799.31 -79.25 784.52 -78.97 769.73 -78.9 754.94 -79.05 740.15 -79.39 725.35 -79.85 710.56 -80.35 695.77 -80.77 680.98 -81.03 666.19 -81.09 651.4 -80.92 636.61 -80.56 621.81 -80.09 607.02 -79.6 592.23 -79.19 577.44 -78.94 562.65 -78.91 547.86 -79.09 533.07 -79.46 518.28 -79.94 503.48 -80.43 488.69 -80.83 473.9 -81.06 459.11 -81.07 444.32 -80.87 429.53 -80.49 414.74 -80.01 399.95 -79.52 385.15 -79.13 370.36 -78.92 355.57 -78.93 340.78 -79.15 325.99 -79.54 311.2 -80.03 296.41 -80.51 281.61 -80.88 266.82 -81.08 252.03 -81.05 237.24 -80.81 222.45 -80.41 207.66 -79.92 192.87 -79.44 178.08 -79.08 163.28 -78.91 148.49 -78.95 133.7 -79.21 118.91 -79.62 104.12 -80.12 89.33 -80.58 74.54 -80.93 59.75 -81.09 44.95 -81.02 30.16 -80.75 15.37 -80.32 0.58 -79.83 -14.2 -79.37 -28.99 -79.04 -43.78 -78.9 -58.57 -78.98 -73.37 -79.27 -88.16" fill="url(#uuunion-grad)"></path><path d="M-79.27 -88.16Q-78.98 -73.37 -78.9 -58.57 -79.04 -43.78 -79.37 -28.99 -79.83 -14.2 -80.32 0.58 -80.75 15.37 -81.02 30.16 -81.09 44.95 -80.93 59.75 -80.58 74.54 -80.12 89.33 -79.62 104.12 -79.21 118.91 -78.95 133.7 -78.91 148.49 -79.08 163.28 -79.44 178.08 -79.92 192.87 -80.41 207.66 -80.81 222.45 -81.05 237.24 -81.08 252.03 -80.88 266.82 -80.51 281.61 -80.03 296.41 -79.54 311.2 -79.15 325.99 -78.93 340.78 -78.92 355.57 -79.13 370.36 -79.52 385.15 -69.63 388.05 -59.75 392.35 -49.86 397.55 -39.97 403.04 -30.09 408.17 -20.2 412.34 -1.67 415.74 1.53 415.96 13.64 407.71 25.67 396.97 37.67 384.56 49.66 371.62 61.68 359.38 73.78 348.9 85.99 340.93 98.34 335.76 110.86 333.15 123.56 332.41 136.46 332.53 149.56 332.33 162.85 330.73 176.29 326.9 189.88 320.44 203.55 311.41 217.26 300.35 230.96 288.15 244.6 275.92 258.1 264.73 271.42 255.46 284.51 248.63 297.31 244.32 309.8 242.14 321.95 241.33 333.75 240.88 345.2 239.73 356.32 236.99 367.15 232.02 377.74 224.64 388.15 215.07 398.44 203.96 408.71 192.2 419.03 180.8 429.5 170.68 440.2 162.53 451.21 156.67 462.61 152.98 474.46 150.97 486.79 149.85 499.65 148.68 513.03 146.54 526.93 142.7 541.31 136.76 556.12 128.68 571.29 118.84 586.74 107.9 602.35 96.75 618.02 86.26 633.63 77.19 649.05 70.03 664.17 64.91 678.87 61.59 693.06 59.52 706.66 57.91 719.59 55.93 731.83 52.79 743.36 47.97 754.18 41.23 764.34 32.7 773.9 22.82 782.95 12.26 791.61 1.83 800 -7.72 788.87 -25.02 780.8 -42.31 778 -59.61 781.24 -76.91 789.64 -94.21 800.88 -111.5 808.12 -135.82 789.1 -138.85 773.84 -135.16 758.59 -132.71 743.33 -132.15 728.08 -133.61 712.82 -136.73 697.57 -140.69 682.31 -144.47 667.06 -147.09 651.8 -147.88 636.55 -146.63 621.29 -143.67 606.04 -139.76 590.78 -135.9 575.53 -133.11 560.27 -132.1 545.02 -133.12 529.76 -135.92 514.51 -139.78 499.25 -143.69 484 -146.65 468.74 -147.88 453.49 -147.08 438.23 -144.45 422.98 -140.66 407.72 -136.71 392.47 -133.6 377.21 -132.15 361.96 -132.72 346.7 -135.17 331.45 -138.87 316.19 -142.86 300.94 -146.11 285.68 -147.78 270.43 -147.44 255.17 -145.17 239.92 -141.56 224.66 -137.55 209.41 -134.18 194.15 -132.3 178.89 -132.41 163.64 -134.49 148.38 -137.98 133.13 -142 117.87 -145.5 102.62 -147.57 87.36 -147.69 72.11 -145.82 56.85 -142.44 41.6 -138.43 26.34 -134.83 11.09 -132.56 -4.16 -132.21 -19.41 -133.87 -34.67 -137.12 -49.92 -141.11 -65.18 -144.81 -80.43 -147.27 -95.69 -147.84 -110.94 -146.39 -126.2 -143.29 -135.68 -127.6 -117.39 -115.23 -107.68 -109.6 -98.08 -103.29 -88.61 -96.16 -79.27 -88.16" fill="url(#uuunion-grad2)" filter="url(#uuunion-blur)"></path><path d="M790.52 387.64Q800.41 384.93 810.3 384 820.18 384.95 830.07 387.67 839.96 391.84 849.84 396.97 859.73 402.46 869.62 407.66 880.22 422.77 890.78 437.88 899.15 452.98 903.63 468.09 903.3 483.2 898.25 498.31 889.49 513.42 878.8 528.52 868.35 543.63 860.27 558.74 856.19 573.85 856.95 588.96 862.39 604.06 871.4 619.17 882.16 634.28 892.48 649.39 900.26 664.49 903.93 679.6 902.74 694.71 896.93 709.82 887.68 724.93 876.87 740.03 866.69 755.14 859.22 770.25 855.97 785.36 857.59 800.46 863.77 815.57 873.24 830.68 884.08 845.79 894.09 860.9 895.6 878.29 875.83 869.91 861.7 861.48 847.57 857.14 833.44 857.85 819.32 863.46 805.19 872.73 791.06 883.6 776.94 893.68 762.81 900.73 748.68 903.19 734.56 900.53 720.43 893.33 706.3 883.17 692.18 872.32 678.05 863.16 663.92 857.73 649.8 857.21 635.67 861.74 621.54 870.3 607.42 881.01 593.29 891.49 579.16 899.43 565.04 903.07 550.91 901.61 536.78 895.37 522.66 885.73 508.53 874.82 494.4 865.06 480.28 858.6 466.15 856.87 452.02 860.25 437.9 868 423.77 878.4 409.64 889.16 395.52 897.89 381.39 902.66 367.26 902.42 353.14 897.22 339.01 888.22 324.88 877.39 310.76 867.14 296.63 859.74 282.5 856.81 268.38 859.01 254.25 865.85 240.12 875.82 226 886.71 211.87 896.12 197.74 901.96 183.62 902.95 169.49 898.86 155.36 890.6 141.24 879.99 127.11 869.39 112.98 861.13 98.86 857.04 84.73 858.03 70.6 863.88 56.47 873.28 42.35 884.18 28.22 894.14 7 897.01 -0.22 882.88 -0.43 872.73 -0.69 862.58 -0.98 852.43 -1.27 842.28 -1.4 827.06 -0.77 822 11.32 813.65 23.41 801.69 35.52 787.2 47.69 771.69 59.95 756.87 72.33 744.28 84.86 735.07 97.56 729.74 110.44 728.09 123.5 729.25 136.72 731.85 150.1 734.26 163.6 734.91 177.17 732.55 190.79 726.5 204.39 716.76 217.92 704 231.32 689.43 244.55 674.58 257.55 661.03 270.29 650.09 282.73 642.59 294.85 638.73 306.65 638.03 318.12 639.46 329.3 641.6 340.21 642.91 350.91 642.02 361.45 637.98 371.91 630.42 382.35 619.61 392.87 606.4 403.55 592.1 414.47 578.18 425.7 566.03 437.32 556.71 449.37 550.75 461.89 548.06 474.91 547.96 488.43 549.31 502.44 550.71 516.9 550.76 531.74 548.33 546.91 542.75 562.31 533.93 577.84 522.38 593.39 509.08 608.84 495.34 624.08 482.53 639 471.83 653.49 464.03 667.47 459.38 680.84 457.55 693.57 457.72 705.63 458.68 716.99 459.12 727.69 457.82 737.76 453.91 747.29 446.99 756.35 437.2 765.07 425.24 773.58 412.16 786.27 393.43 790.52 387.64" fill="url(#uuunion-grad3)" filter="url(#uuunion-blur2)"></path></svg>