<svg id="visual" viewBox="0 0 900 600" width="900" height="600" xmlns="http://www.w3.org/2000/svg" xmlns:xlink="http://www.w3.org/1999/xlink" version="1.1"><g stroke-width="1" stroke-linejoin="bevel"><path d="M396 276L463 208L387 237Z" fill="#194868" stroke="#194868"></path><path d="M396 276L535 279L463 208Z" fill="#4daede" stroke="#4daede"></path><path d="M619 184L493 128L463 208Z" fill="#22587b" stroke="#22587b"></path><path d="M463 208L401 107L387 237Z" fill="#55c1f3" stroke="#55c1f3"></path><path d="M493 128L401 107L463 208Z" fill="#3c8ab6" stroke="#3c8ab6"></path><path d="M387 237L308 332L396 276Z" fill="#3c8ab6" stroke="#3c8ab6"></path><path d="M396 276L430 411L535 279Z" fill="#062a43" stroke="#062a43"></path><path d="M295 171L308 332L387 237Z" fill="#062a43" stroke="#062a43"></path><path d="M401 107L295 171L387 237Z" fill="#4daede" stroke="#4daede"></path><path d="M308 332L430 411L396 276Z" fill="#459cca" stroke="#459cca"></path><path d="M430 411L521 407L535 279Z" fill="#103855" stroke="#103855"></path><path d="M587 374L617 300L535 279Z" fill="#3479a2" stroke="#3479a2"></path><path d="M535 279L619 184L463 208Z" fill="#3479a2" stroke="#3479a2"></path><path d="M617 300L619 184L535 279Z" fill="#459cca" stroke="#459cca"></path><path d="M521 407L587 374L535 279Z" fill="#001c32" stroke="#001c32"></path><path d="M619 184L577 92L493 128Z" fill="#4daede" stroke="#4daede"></path><path d="M493 128L467 0L401 107Z" fill="#459cca" stroke="#459cca"></path><path d="M321 0L263 109L401 107Z" fill="#3c8ab6" stroke="#3c8ab6"></path><path d="M401 107L263 109L295 171Z" fill="#22587b" stroke="#22587b"></path><path d="M191 335L263 396L308 332Z" fill="#3c8ab6" stroke="#3c8ab6"></path><path d="M263 396L421 473L430 411Z" fill="#2b688e" stroke="#2b688e"></path><path d="M430 411L421 473L521 407Z" fill="#459cca" stroke="#459cca"></path><path d="M521 407L562 484L587 374Z" fill="#55c1f3" stroke="#55c1f3"></path><path d="M191 335L308 332L170 227Z" fill="#103855" stroke="#103855"></path><path d="M308 332L263 396L430 411Z" fill="#3479a2" stroke="#3479a2"></path><path d="M725 396L661 272L617 300Z" fill="#3c8ab6" stroke="#3c8ab6"></path><path d="M617 300L661 272L619 184Z" fill="#55c1f3" stroke="#55c1f3"></path><path d="M619 184L719 84L577 92Z" fill="#103855" stroke="#103855"></path><path d="M577 92L467 0L493 128Z" fill="#001c32" stroke="#001c32"></path><path d="M467 0L363 0L401 107Z" fill="#3c8ab6" stroke="#3c8ab6"></path><path d="M170 227L308 332L295 171Z" fill="#001c32" stroke="#001c32"></path><path d="M170 119L170 227L295 171Z" fill="#001c32" stroke="#001c32"></path><path d="M502 529L562 484L521 407Z" fill="#194868" stroke="#194868"></path><path d="M587 374L725 396L617 300Z" fill="#103855" stroke="#103855"></path><path d="M363 0L321 0L401 107Z" fill="#22587b" stroke="#22587b"></path><path d="M263 109L170 119L295 171Z" fill="#001c32" stroke="#001c32"></path><path d="M833 272L707 204L661 272Z" fill="#3c8ab6" stroke="#3c8ab6"></path><path d="M661 272L707 204L619 184Z" fill="#459cca" stroke="#459cca"></path><path d="M104 409L208 424L191 335Z" fill="#103855" stroke="#103855"></path><path d="M191 335L208 424L263 396Z" fill="#459cca" stroke="#459cca"></path><path d="M263 396L304 533L421 473Z" fill="#4daede" stroke="#4daede"></path><path d="M378 600L502 529L421 473Z" fill="#3c8ab6" stroke="#3c8ab6"></path><path d="M421 473L502 529L521 407Z" fill="#001c32" stroke="#001c32"></path><path d="M166 0L170 119L263 109Z" fill="#4daede" stroke="#4daede"></path><path d="M170 119L137 189L170 227Z" fill="#55c1f3" stroke="#55c1f3"></path><path d="M170 227L77 303L191 335Z" fill="#459cca" stroke="#459cca"></path><path d="M227 500L304 533L263 396Z" fill="#001c32" stroke="#001c32"></path><path d="M719 84L634 0L577 92Z" fill="#001c32" stroke="#001c32"></path><path d="M577 92L634 0L467 0Z" fill="#3479a2" stroke="#3479a2"></path><path d="M713 511L725 396L562 484Z" fill="#103855" stroke="#103855"></path><path d="M562 484L725 396L587 374Z" fill="#103855" stroke="#103855"></path><path d="M208 424L227 500L263 396Z" fill="#459cca" stroke="#459cca"></path><path d="M65 474L227 500L208 424Z" fill="#3479a2" stroke="#3479a2"></path><path d="M707 204L719 84L619 184Z" fill="#3c8ab6" stroke="#3c8ab6"></path><path d="M764 125L719 84L707 204Z" fill="#3479a2" stroke="#3479a2"></path><path d="M827 178L764 125L707 204Z" fill="#001c32" stroke="#001c32"></path><path d="M719 84L703 0L634 0Z" fill="#459cca" stroke="#459cca"></path><path d="M339 600L378 600L304 533Z" fill="#2b688e" stroke="#2b688e"></path><path d="M304 533L378 600L421 473Z" fill="#4daede" stroke="#4daede"></path><path d="M0 233L77 303L137 189Z" fill="#22587b" stroke="#22587b"></path><path d="M137 189L77 303L170 227Z" fill="#55c1f3" stroke="#55c1f3"></path><path d="M321 0L166 0L263 109Z" fill="#55c1f3" stroke="#55c1f3"></path><path d="M170 119L79 79L137 189Z" fill="#4daede" stroke="#4daede"></path><path d="M830 0L703 0L719 84Z" fill="#55c1f3" stroke="#55c1f3"></path><path d="M189 600L339 600L304 533Z" fill="#3479a2" stroke="#3479a2"></path><path d="M77 303L104 409L191 335Z" fill="#459cca" stroke="#459cca"></path><path d="M227 500L189 600L304 533Z" fill="#4daede" stroke="#4daede"></path><path d="M378 600L537 600L502 529Z" fill="#3c8ab6" stroke="#3c8ab6"></path><path d="M502 529L537 600L562 484Z" fill="#3c8ab6" stroke="#3c8ab6"></path><path d="M798 465L787 398L725 396Z" fill="#001c32" stroke="#001c32"></path><path d="M725 396L833 272L661 272Z" fill="#459cca" stroke="#459cca"></path><path d="M596 600L713 511L562 484Z" fill="#194868" stroke="#194868"></path><path d="M537 600L596 600L562 484Z" fill="#3c8ab6" stroke="#3c8ab6"></path><path d="M166 0L79 79L170 119Z" fill="#459cca" stroke="#459cca"></path><path d="M833 272L827 178L707 204Z" fill="#3479a2" stroke="#3479a2"></path><path d="M764 125L830 0L719 84Z" fill="#103855" stroke="#103855"></path><path d="M787 398L833 272L725 396Z" fill="#194868" stroke="#194868"></path><path d="M166 0L101 0L79 79Z" fill="#4daede" stroke="#4daede"></path><path d="M713 511L798 465L725 396Z" fill="#3479a2" stroke="#3479a2"></path><path d="M787 398L900 320L833 272Z" fill="#459cca" stroke="#459cca"></path><path d="M786 600L798 465L713 511Z" fill="#22587b" stroke="#22587b"></path><path d="M138 600L189 600L227 500Z" fill="#22587b" stroke="#22587b"></path><path d="M0 399L65 474L104 409Z" fill="#3c8ab6" stroke="#3c8ab6"></path><path d="M104 409L65 474L208 424Z" fill="#459cca" stroke="#459cca"></path><path d="M0 399L104 409L77 303Z" fill="#4daede" stroke="#4daede"></path><path d="M0 88L0 233L79 79Z" fill="#3479a2" stroke="#3479a2"></path><path d="M79 79L0 233L137 189Z" fill="#55c1f3" stroke="#55c1f3"></path><path d="M0 233L0 306L77 303Z" fill="#194868" stroke="#194868"></path><path d="M596 600L707 600L713 511Z" fill="#001c32" stroke="#001c32"></path><path d="M0 306L0 399L77 303Z" fill="#459cca" stroke="#459cca"></path><path d="M65 474L138 600L227 500Z" fill="#3c8ab6" stroke="#3c8ab6"></path><path d="M0 535L138 600L65 474Z" fill="#103855" stroke="#103855"></path><path d="M0 0L0 88L79 79Z" fill="#4daede" stroke="#4daede"></path><path d="M900 92L764 125L827 178Z" fill="#4daede" stroke="#4daede"></path><path d="M900 92L830 0L764 125Z" fill="#459cca" stroke="#459cca"></path><path d="M900 379L900 320L787 398Z" fill="#22587b" stroke="#22587b"></path><path d="M833 272L900 162L827 178Z" fill="#459cca" stroke="#459cca"></path><path d="M900 379L787 398L798 465Z" fill="#194868" stroke="#194868"></path><path d="M900 320L900 162L833 272Z" fill="#4daede" stroke="#4daede"></path><path d="M900 513L900 379L798 465Z" fill="#3479a2" stroke="#3479a2"></path><path d="M900 162L900 92L827 178Z" fill="#22587b" stroke="#22587b"></path><path d="M707 600L786 600L713 511Z" fill="#4daede" stroke="#4daede"></path><path d="M101 0L0 0L79 79Z" fill="#4daede" stroke="#4daede"></path><path d="M0 399L0 535L65 474Z" fill="#22587b" stroke="#22587b"></path><path d="M900 92L900 0L830 0Z" fill="#001c32" stroke="#001c32"></path><path d="M786 600L900 513L798 465Z" fill="#3c8ab6" stroke="#3c8ab6"></path><path d="M0 535L0 600L138 600Z" fill="#103855" stroke="#103855"></path><path d="M786 600L900 600L900 513Z" fill="#3479a2" stroke="#3479a2"></path></g></svg>