<svg width="45" height="45" viewBox="0 0 45 45" fill="none" xmlns="http://www.w3.org/2000/svg">
<g opacity="0.25">
<path d="M31.7045 25.7388H30.1705C28.1369 25.7412 26.1872 26.5501 24.7493 27.988C23.3113 29.426 22.5024 31.3756 22.5 33.4092C22.5013 34.6294 22.9866 35.7993 23.8494 36.6621C24.7123 37.5249 25.8821 38.0102 27.1023 38.0115H34.7727C35.9929 38.0102 37.1627 37.5249 38.0256 36.6621C38.8884 35.7993 39.3737 34.6294 39.375 33.4092C39.3726 31.3756 38.5637 29.426 37.1257 27.988C35.6878 26.5501 33.7381 25.7412 31.7045 25.7388Z" fill="white"/>
<path d="M15.7292 24.375H14.2708C12.1443 24.3775 10.1057 25.2234 8.60203 26.727C7.09837 28.2307 6.25251 30.2694 6.24999 32.3958V33.125C6.25126 34.2849 6.71261 35.397 7.53281 36.2172C8.35301 37.0374 9.46507 37.4987 10.625 37.5H19.375C20.5349 37.4987 21.647 37.0374 22.4672 36.2172C23.2874 35.397 23.7487 34.2849 23.75 33.125V32.3958C23.7475 30.2694 22.9016 28.2307 21.398 26.727C19.8943 25.2234 17.8557 24.3775 15.7292 24.375Z" fill="#8DD1FF"/>
<path d="M15 18.75C18.1066 18.75 20.625 16.2316 20.625 13.125C20.625 10.0184 18.1066 7.5 15 7.5C11.8934 7.5 9.375 10.0184 9.375 13.125C9.375 16.2316 11.8934 18.75 15 18.75Z" fill="#8DD1FF"/>
<path d="M30.9375 20.625C33.5263 20.625 35.625 18.5263 35.625 15.9375C35.625 13.3487 33.5263 11.25 30.9375 11.25C28.3487 11.25 26.25 13.3487 26.25 15.9375C26.25 18.5263 28.3487 20.625 30.9375 20.625Z" fill="#3E96ED"/>
<path d="M30.9375 22.5C29.6396 22.5 28.3708 22.1151 27.2916 21.394C26.2124 20.6729 25.3712 19.648 24.8745 18.4489C24.3778 17.2497 24.2479 15.9302 24.5011 14.6572C24.7543 13.3842 25.3793 12.2149 26.2971 11.2971C27.2149 10.3793 28.3842 9.75432 29.6572 9.5011C30.9302 9.24788 32.2497 9.37784 33.4489 9.87454C34.648 10.3712 35.6729 11.2124 36.394 12.2916C37.1151 13.3708 37.5 14.6396 37.5 15.9375C37.4979 17.6773 36.8058 19.3453 35.5756 20.5756C34.3453 21.8058 32.6773 22.4979 30.9375 22.5ZM30.9375 13.125C30.3812 13.125 29.8375 13.29 29.375 13.599C28.9124 13.908 28.552 14.3473 28.3391 14.8612C28.1262 15.3751 28.0705 15.9406 28.179 16.4862C28.2876 17.0318 28.5554 17.5329 28.9488 17.9262C29.3421 18.3196 29.8432 18.5874 30.3888 18.696C30.9344 18.8045 31.4999 18.7488 32.0138 18.5359C32.5277 18.323 32.967 17.9626 33.276 17.5C33.585 17.0375 33.75 16.4938 33.75 15.9375C33.7492 15.1918 33.4526 14.4769 32.9253 13.9497C32.3981 13.4224 31.6832 13.1258 30.9375 13.125ZM20.625 39.375H9.375C7.88366 39.3734 6.45386 38.7802 5.39932 37.7257C4.34478 36.6711 3.75163 35.2413 3.75 33.75C3.75 30.7663 4.93526 27.9048 7.04505 25.7951C9.15483 23.6853 12.0163 22.5 15 22.5C17.9837 22.5 20.8452 23.6853 22.955 25.7951C25.0647 27.9048 26.25 30.7663 26.25 33.75C26.2484 35.2413 25.6552 36.6711 24.6007 37.7257C23.5461 38.7802 22.1163 39.3734 20.625 39.375ZM15 26.25C13.0115 26.252 11.105 27.0428 9.69889 28.4489C8.2928 29.855 7.50199 31.7615 7.5 33.75C7.50033 34.2472 7.69798 34.7239 8.04954 35.0755C8.4011 35.427 8.87782 35.6247 9.375 35.625H20.625C21.1222 35.6247 21.5989 35.427 21.9505 35.0755C22.302 34.7239 22.4997 34.2472 22.5 33.75C22.498 31.7615 21.7072 29.855 20.3011 28.4489C18.895 27.0428 16.9885 26.252 15 26.25Z" fill="#004FAC"/>
<path d="M35.625 39.375H26.25C25.4448 39.3754 24.6491 39.2013 23.9176 38.8647C23.1861 38.5281 22.5363 38.0369 22.0129 37.425C21.8523 37.238 21.7302 37.0211 21.6535 36.7869C21.5768 36.5526 21.547 36.3055 21.5659 36.0597C21.5847 35.814 21.6519 35.5743 21.7635 35.3545C21.875 35.1347 22.0289 34.939 22.2161 34.7787C22.4034 34.6184 22.6204 34.4966 22.8548 34.4203C23.0892 34.3439 23.3363 34.3145 23.5821 34.3338C23.8278 34.353 24.0674 34.4206 24.287 34.5325C24.5066 34.6444 24.7021 34.7985 24.8621 34.986C25.0334 35.1866 25.2463 35.3476 25.4859 35.4579C25.7255 35.5682 25.9862 35.6252 26.25 35.625H35.625C35.8668 35.6272 36.1065 35.5807 36.3298 35.4882C36.5532 35.3957 36.7557 35.2592 36.9251 35.0867C37.1071 34.9149 37.252 34.7077 37.3509 34.4778C37.4498 34.248 37.5005 34.0003 37.5 33.75C37.5908 32.3598 37.1301 30.9897 36.2177 29.9368C35.3053 28.8839 34.0148 28.233 32.6257 28.125H29.2493C28.605 28.1332 27.9697 28.2779 27.3855 28.5496C26.8012 28.8214 26.2813 29.214 25.86 29.7015C25.5881 30.0034 25.355 30.338 25.166 30.6976C25.0499 30.9148 24.8921 31.1069 24.7017 31.2631C24.5113 31.4192 24.292 31.5364 24.0564 31.6078C23.8207 31.6792 23.5733 31.7035 23.3282 31.6793C23.0832 31.6551 22.8453 31.5828 22.6282 31.4667C22.411 31.3505 22.2189 31.1928 22.0628 31.0024C21.9066 30.812 21.7895 30.5927 21.718 30.357C21.6466 30.1214 21.6223 29.874 21.6465 29.6289C21.6708 29.3839 21.743 29.146 21.8591 28.9288C22.1934 28.2979 22.6042 27.7105 23.0823 27.1802C23.8533 26.303 24.8017 25.5994 25.8648 25.1158C26.9278 24.6323 28.0814 24.3798 29.2493 24.375H32.6257C35.0102 24.4814 37.2556 25.5271 38.8715 27.2837C40.4874 29.0403 41.3425 31.365 41.25 33.75C41.243 35.2397 40.6481 36.6664 39.5948 37.7198C38.5414 38.7731 37.1147 39.368 35.625 39.375ZM15 20.625C13.5166 20.625 12.0666 20.1851 10.8332 19.361C9.59986 18.5369 8.63856 17.3656 8.07091 15.9951C7.50325 14.6247 7.35472 13.1167 7.64411 11.6618C7.9335 10.207 8.64781 8.8706 9.6967 7.8217C10.7456 6.77281 12.082 6.0585 13.5368 5.76911C14.9917 5.47972 16.4997 5.62825 17.8701 6.19591C19.2406 6.76356 20.4119 7.72486 21.236 8.95823C22.0601 10.1916 22.5 11.6416 22.5 13.125C22.498 15.1135 21.7072 17.02 20.3011 18.4261C18.895 19.8322 16.9885 20.623 15 20.625ZM15 9.375C14.2583 9.375 13.5333 9.59494 12.9166 10.007C12.2999 10.419 11.8193 11.0047 11.5355 11.6899C11.2516 12.3752 11.1774 13.1292 11.3221 13.8566C11.4668 14.584 11.8239 15.2522 12.3484 15.7767C12.8728 16.3011 13.541 16.6583 14.2684 16.8029C14.9958 16.9476 15.7498 16.8734 16.4351 16.5896C17.1203 16.3057 17.706 15.8251 18.118 15.2084C18.5301 14.5917 18.75 13.8667 18.75 13.125C18.7487 12.1308 18.3532 11.1778 17.6502 10.4748C16.9472 9.7718 15.9942 9.37629 15 9.375Z" fill="#004FAC"/>
</g>
</svg>
