<svg width="40" height="40" viewBox="0 0 40 40" fill="none" xmlns="http://www.w3.org/2000/svg">
<g clip-path="url(#clip0_76_2038)">
<path d="M39.0187 28.8374C38.375 28.2436 37.4187 28.0999 36.6312 28.4874L27.2812 32.9124V32.9186C27.2875 32.8374 27.2937 32.7561 27.3062 32.6624C27.3562 31.5811 26.8125 30.5436 25.8812 29.9436C25.4625 29.6749 24.975 29.5061 24.4625 29.4624L20.3812 29.0874C18.9687 28.9499 17.6187 28.6499 16.3625 28.1749C15.9437 28.0186 15.5687 27.8686 15.2187 27.6999C14.825 27.5124 14.4062 27.3374 13.9062 27.1374C12.9687 26.7811 11.9875 26.6186 10.9875 26.6561L10.2625 26.6874L10.2312 25.9624C10.2062 25.3686 9.69374 24.9061 9.11249 24.9311L1.33749 25.2436C0.749991 25.2686 0.287491 25.7749 0.299991 26.3686L0.806241 38.9686C0.831241 39.5436 1.31249 39.9999 1.89374 39.9999H1.92499L9.68749 39.6874C9.98124 39.6749 10.2437 39.5561 10.4437 39.3436C10.6375 39.1311 10.7375 38.8561 10.7312 38.5686C10.725 38.5686 10.725 38.5686 10.725 38.5624L10.7 37.9124L13.6375 38.7936C15.925 39.4811 18.2937 39.8311 20.6812 39.8311C21.0125 39.8311 21.35 39.8249 21.6812 39.8124L25.2937 39.6686C26.6375 39.6186 27.9562 39.1936 29.1 38.4561L38.7312 32.1936C39.3375 31.7936 39.7 31.1249 39.7 30.3999C39.7 29.7936 39.4562 29.2374 39.0187 28.8374ZM7.79374 36.0374C7.79374 36.5811 7.59374 37.0999 7.22499 37.4999C6.83749 37.9186 6.31249 38.1624 5.74374 38.1811C5.71249 38.1874 5.68749 38.1874 5.65624 38.1874C4.51874 38.1874 3.56874 37.2811 3.52499 36.1311C3.49999 35.5624 3.69999 35.0186 4.08749 34.5999C4.47499 34.1811 4.99999 33.9374 5.57499 33.9124C6.14999 33.8936 6.68749 34.0936 7.10624 34.4811C7.52499 34.8686 7.76874 35.3936 7.79374 35.9624V36.0374ZM38.3937 31.6749L28.7687 37.9374C27.7187 38.6186 26.5062 39.0061 25.2687 39.0499L21.6562 39.1936C19 39.3061 16.3562 38.9686 13.8125 38.2061L10.675 37.2686L10.2812 27.3061L11.0062 27.2749C11.925 27.2436 12.8187 27.3874 13.675 27.7124C14.1625 27.8999 14.5625 28.0749 14.9437 28.2561C15.3062 28.4311 15.7 28.5936 16.1375 28.7499C17.4437 29.2374 18.85 29.5561 20.3125 29.6936L24.4 30.0686C24.8125 30.1061 25.2062 30.2374 25.5375 30.4561C26.2812 30.9311 26.7187 31.7624 26.6812 32.6374C26.6687 32.7686 26.6562 32.9124 26.6375 33.0561C26.625 33.1311 26.5875 33.1999 26.5312 33.2499C26.525 33.2561 26.5187 33.2561 26.5125 33.2624C26.4687 33.2874 26.4125 33.3061 26.3625 33.3124L20.9312 33.5311C20.7625 33.5374 20.6312 33.6811 20.6375 33.8499C20.6437 34.0124 20.7812 34.1436 20.9437 34.1436C20.95 34.1436 20.95 34.1436 20.9562 34.1436L26.3875 33.9249C26.5312 33.9186 26.675 33.8749 26.8 33.8061C26.8062 33.8061 26.8062 33.7999 26.8125 33.7999L26.8562 33.7749L36.8937 29.0311C37.4562 28.7561 38.1375 28.8499 38.5937 29.2749C38.9062 29.5624 39.0812 29.9561 39.0812 30.3874C39.0875 30.9186 38.825 31.3936 38.3937 31.6749Z" fill="#076EB1"/>
<path d="M5.66249 34.525C5.63749 34.525 5.61874 34.5312 5.59999 34.5312C5.19374 34.5438 4.81874 34.7188 4.53749 35.0187C4.26249 35.3125 4.11874 35.7062 4.13749 36.1125C4.16874 36.95 4.88749 37.6125 5.71874 37.5687C6.12499 37.55 6.49999 37.3813 6.77499 37.0813C7.04999 36.7812 7.19374 36.3937 7.17499 35.9875C7.16249 35.5813 6.98749 35.2062 6.68749 34.9313C6.40624 34.6688 6.04374 34.525 5.66249 34.525ZM15.9062 2.8875C16.5937 2.8875 17.1687 2.4 17.3062 1.75H18.8812C19.0375 1.75 19.1625 1.875 19.1625 2.03125V4.90625C19.1625 5.075 19.3 5.2125 19.4687 5.2125C19.6375 5.2125 19.775 5.075 19.775 4.90625V2.03125C19.775 1.5375 19.375 1.1375 18.8812 1.1375H17.3062C17.1687 0.4875 16.5937 0 15.9062 0C15.1062 0 14.4625 0.65 14.4625 1.44375C14.4625 2.2375 15.1062 2.8875 15.9062 2.8875ZM24.8812 5.2125C25.05 5.2125 25.1875 5.075 25.1875 4.90625V2.03125C25.1875 1.875 25.3125 1.75 25.4687 1.75H27.0375C27.175 2.4 27.7562 2.8875 28.4437 2.8875C29.2375 2.8875 29.8875 2.2375 29.8875 1.44375C29.8875 0.65 29.2375 0 28.4437 0C27.7562 0 27.175 0.4875 27.0375 1.1375H25.4687C24.975 1.1375 24.575 1.5375 24.575 2.03125V4.90625C24.575 5.075 24.7125 5.2125 24.8812 5.2125ZM19.1562 21.0188V23.7625C19.1562 23.9188 19.0312 24.0438 18.875 24.0438H17.3062C17.1687 23.3938 16.5937 22.9062 15.9062 22.9062C15.1062 22.9062 14.4625 23.5562 14.4625 24.35C14.4625 25.15 15.1062 25.7938 15.9062 25.7938C16.5937 25.7938 17.1687 25.3125 17.3062 24.6625H18.875C19.3687 24.6625 19.7687 24.2625 19.7687 23.7687V21.025C19.7687 20.8562 19.6312 20.7188 19.4625 20.7188C19.2937 20.7063 19.1562 20.8438 19.1562 21.0188ZM24.8812 20.7063C24.7125 20.7063 24.575 20.8438 24.575 21.0125V23.7562C24.575 24.25 24.975 24.65 25.4687 24.65H27.0375C27.175 25.3 27.7562 25.7812 28.4437 25.7812C29.2375 25.7812 29.8875 25.1375 29.8875 24.3375C29.8875 23.5437 29.2375 22.8938 28.4437 22.8938C27.7562 22.8938 27.175 23.3813 27.0375 24.0312H25.4687C25.3125 24.0312 25.1875 23.9062 25.1875 23.75V21.0063C25.1875 20.8438 25.05 20.7063 24.8812 20.7063ZM30.8437 10.4938H33.0375C33.5312 10.4938 33.9312 10.0938 33.9312 9.6V8.0375C34.575 7.89375 35.0687 7.3125 35.0687 6.625C35.0687 5.83125 34.4187 5.18125 33.625 5.18125C32.8312 5.18125 32.1812 5.83125 32.1812 6.625C32.1812 7.3125 32.675 7.89375 33.3187 8.0375V9.6C33.3187 9.75625 33.1937 9.88125 33.0375 9.88125H30.8437C30.675 9.88125 30.5375 10.0187 30.5375 10.1875C30.5375 10.3562 30.675 10.4938 30.8437 10.4938ZM32.1812 19.1625C32.1812 19.9625 32.8312 20.6063 33.625 20.6063C34.4187 20.6063 35.0687 19.9625 35.0687 19.1625C35.0687 18.475 34.575 17.8937 33.9312 17.75V16.1875C33.9312 15.6937 33.5312 15.2937 33.0375 15.2937H30.8437C30.675 15.2937 30.5375 15.4312 30.5375 15.6C30.5375 15.7687 30.675 15.9062 30.8437 15.9062H33.0375C33.1937 15.9062 33.3187 16.0312 33.3187 16.1875V17.75C32.675 17.8937 32.1812 18.475 32.1812 19.1625ZM10.4125 8.03125V9.6C10.4125 10.0938 10.8125 10.4938 11.3062 10.4938H13.6187C13.7875 10.4938 13.925 10.3562 13.925 10.1875C13.925 10.0187 13.7875 9.88125 13.6187 9.88125H11.3062C11.15 9.88125 11.025 9.75625 11.025 9.6V8.0375C11.6687 7.89375 12.1562 7.3125 12.1562 6.625C12.1562 5.83125 11.5125 5.18125 10.7187 5.18125C9.91874 5.18125 9.27499 5.83125 9.27499 6.625C9.28124 7.3125 9.76249 7.89375 10.4125 8.03125ZM10.725 20.6063C11.5187 20.6063 12.1625 19.9625 12.1625 19.1625C12.1625 18.475 11.675 17.8937 11.0312 17.75V16.1875C11.0312 16.0312 11.1562 15.9062 11.3125 15.9062H13.625C13.7937 15.9062 13.9312 15.7687 13.9312 15.6C13.9312 15.4312 13.7937 15.2937 13.625 15.2937H11.3125C10.8187 15.2937 10.4187 15.6937 10.4187 16.1875V17.7563C9.76874 17.8937 9.28749 18.475 9.28749 19.1625C9.28124 19.9625 9.92499 20.6063 10.725 20.6063Z" fill="#2E3A46"/>
<path d="M10.725 14.25C11.4125 14.25 11.9937 13.7625 12.1312 13.1125H13.6312V14.1313C13.6312 14.35 13.8125 14.5312 14.025 14.5312H15.2313C15.4063 15.2812 15.7 15.9937 16.1062 16.6437L15.2562 17.5C15.1062 17.65 15.1062 17.9 15.2562 18.0562L17.0125 19.8125C17.1625 19.9625 17.4125 19.9625 17.5688 19.8125L18.4187 18.9625C19.075 19.3625 19.7875 19.6625 20.5375 19.8375V21.0375C20.5375 21.2563 20.7125 21.4375 20.9313 21.4375H21.7812V22.9312C21.1375 23.075 20.6437 23.6562 20.6437 24.3438C20.6437 25.1438 21.2937 25.7875 22.0875 25.7875C22.8812 25.7875 23.5313 25.1438 23.5313 24.3438C23.5313 23.6562 23.0375 23.075 22.3938 22.9312V21.4375H23.4125C23.6312 21.4375 23.8062 21.2563 23.8062 21.0375V19.8375C24.5625 19.6625 25.2687 19.3687 25.925 18.9625L26.775 19.8125C26.9312 19.9625 27.1813 19.9625 27.3375 19.8125L29.0875 18.0562C29.2437 17.9 29.2437 17.65 29.0875 17.5L28.2375 16.6437C28.6437 15.9937 28.9375 15.2812 29.1125 14.5312H30.3187C30.5375 14.5312 30.7125 14.35 30.7125 14.1313V13.1125H32.2125C32.3563 13.7625 32.9375 14.25 33.625 14.25C34.4187 14.25 35.0688 13.6062 35.0688 12.8062C35.0688 12.0125 34.4187 11.3688 33.625 11.3688C32.9375 11.3688 32.3562 11.85 32.2187 12.5H30.7125V11.6562C30.7125 11.4375 30.5375 11.2563 30.3187 11.2563H29.1125C28.9375 10.5063 28.6437 9.79375 28.2375 9.14375L29.0875 8.29375C29.1625 8.21875 29.2062 8.11875 29.2062 8.0125C29.2062 7.90625 29.1625 7.80625 29.0875 7.73125L27.3375 5.975C27.2625 5.90625 27.1625 5.875 27.0562 5.8625C26.95 5.8625 26.85 5.90625 26.775 5.975L25.925 6.83125C25.2687 6.425 24.5625 6.13125 23.8062 5.95625V4.75C23.8062 4.53125 23.6312 4.35 23.4125 4.35H22.3938V2.85625C23.0375 2.7125 23.5313 2.13125 23.5313 1.44375C23.5313 0.65 22.8812 0 22.0875 0C21.2937 0 20.6437 0.65 20.6437 1.44375C20.6437 2.13125 21.1375 2.7125 21.7812 2.85625V4.35H20.9313C20.7125 4.35 20.5375 4.53125 20.5375 4.75V5.95625C19.7875 6.13125 19.075 6.425 18.425 6.83125L17.5688 5.975C17.4187 5.825 17.1625 5.825 17.0125 5.975L15.2562 7.73125C15.1 7.8875 15.1 8.1375 15.2562 8.29375L16.1062 9.14375C15.7 9.8 15.4063 10.5063 15.2313 11.2563H14.025C13.8125 11.2563 13.6312 11.4375 13.6312 11.6562V12.5H12.125C11.9875 11.85 11.4125 11.3688 10.725 11.3688C9.925 11.3688 9.28125 12.0125 9.28125 12.8062C9.28125 13.6062 9.925 14.25 10.725 14.25ZM17.8313 12.8937C17.8313 10.5 19.775 8.55 22.175 8.55C24.5687 8.55 26.5187 10.5 26.5187 12.8937C26.5187 15.2875 24.5687 17.2375 22.175 17.2375C19.775 17.2375 17.8313 15.2875 17.8313 12.8937Z" fill="#076EB1"/>
</g>
<defs>
<clipPath id="clip0_76_2038">
<rect width="40" height="40" fill="white"/>
</clipPath>
</defs>
</svg>
