<svg width="29" height="25" viewBox="0 0 29 25" fill="black" xmlns="http://www.w3.org/2000/svg">
<path d="M27.6631 11.2661L16.495 0.669318C16.2998 0.484127 16.051 0.358017 15.7803 0.306931C15.5095 0.255845 15.2289 0.282076 14.9738 0.382308C14.7188 0.48254 14.5008 0.652272 14.3474 0.870048C14.194 1.08782 14.1121 1.34387 14.112 1.6058V6.30149C10.2985 6.63633 6.75393 8.30938 4.17195 10.9932C1.58997 13.6771 0.156423 17.1785 0.151855 20.8124V22.7993C0.152076 23.0742 0.24247 23.3423 0.410501 23.5663C0.578531 23.7904 0.815869 23.9592 1.08959 24.0495C1.36332 24.1397 1.65986 24.1469 1.9381 24.0701C2.21633 23.9932 2.46246 23.8361 2.64235 23.6205C4.01002 22.0773 5.68811 20.8082 7.57858 19.8873C9.46904 18.9665 11.534 18.4123 13.6527 18.2573C13.7225 18.2493 13.897 18.2361 14.112 18.2228V22.7993C14.1121 23.0612 14.194 23.3173 14.3474 23.535C14.5008 23.7528 14.7188 23.9226 14.9738 24.0228C15.2289 24.123 15.5095 24.1492 15.7803 24.0982C16.051 24.0471 16.2998 23.921 16.495 23.7358L27.6631 13.139C27.9248 12.8906 28.0719 12.5538 28.0719 12.2025C28.0719 11.8513 27.9248 11.5145 27.6631 11.2661ZM16.904 19.6017V16.8386C16.904 16.4873 16.757 16.1504 16.4952 15.902C16.2333 15.6536 15.8783 15.514 15.508 15.514C15.152 15.514 13.6988 15.5803 13.3274 15.6266C9.56499 15.9556 5.98359 17.3119 3.01648 19.5315C3.35326 16.61 4.8139 13.9091 7.11874 11.9458C9.42358 9.98249 12.4107 8.89484 15.508 8.89107C15.8783 8.89107 16.2333 8.75151 16.4952 8.5031C16.757 8.25469 16.904 7.91778 16.904 7.56647V4.80337L24.7022 12.2025L16.904 19.6017Z" fill="black"/>
</svg>
