<svg width="46" height="45" viewBox="0 0 46 45" fill="none" xmlns="http://www.w3.org/2000/svg">
<rect width="45" height="45" transform="translate(0.699097)" fill="white"/>
<path d="M25.1327 17.7855H32.1165L25.2267 6.07676L25.1327 6.33252L20.9245 17.7855H25.1327ZM25.1327 21.0832H15.303V23.3578C15.3019 24.0002 15.4777 24.6306 15.811 25.1798L15.8057 25.1956C16.675 25.5006 17.1373 25.998 18.6472 25.998C20.8234 25.998 20.8234 24.9645 22.9996 24.9645C25.1757 24.9645 25.1766 25.998 27.3528 25.998C29.529 25.998 29.529 24.9645 31.706 24.9645C33.1114 24.9645 33.6088 25.396 34.3717 25.701L34.3788 25.6825C34.9461 25.0411 35.2587 24.2141 35.2577 23.3578V21.0832H25.1327ZM39.3683 2.17529V34.9523H11.8708V2.17529H39.3683Z" fill="#00EFD1"/>
<path d="M37.2687 34.9524V42.8248H10.9665C9.9225 42.8247 8.92126 42.4099 8.18302 41.6716C7.44478 40.9334 7.03 39.9322 7.02991 38.8881C7.02991 38.8336 7.03079 38.78 7.03342 38.7264C7.0753 37.7114 7.50799 36.7518 8.24102 36.0485C8.97404 35.3451 9.95062 34.9523 10.9665 34.9524H37.2687Z" fill="#00ACEA"/>
<path d="M25.1327 21.0833H35.2577V23.3579C35.2587 24.2141 34.9461 25.0412 34.3788 25.6826L34.3717 25.701C33.6088 25.396 33.1114 24.9645 31.706 24.9645C29.529 24.9645 29.529 25.9981 27.3528 25.9981C25.1766 25.9981 25.1766 24.9645 22.9996 24.9645C20.8225 24.9645 20.8234 25.9981 18.6472 25.9981C17.1373 25.9981 16.675 25.5006 15.8057 25.1957L15.811 25.1798C15.4777 24.6306 15.3019 24.0003 15.303 23.3579V21.0833H25.1327Z" fill="#FEDB41"/>
<path d="M25.2267 6.07666L32.1165 17.7854H25.1327V6.33242L25.2267 6.07666Z" fill="#FEDB41"/>
<path d="M25.1326 6.33252V17.7855H20.9244L25.1326 6.33252Z" fill="#F4B844"/>
<path d="M11.8709 34.9515V34.9523H10.9665C9.95062 34.9523 8.97404 35.345 8.24102 36.0484C7.50799 36.7518 7.0753 37.7113 7.03342 38.7264H7.02991V6.11191C7.02986 5.59494 7.13165 5.08301 7.32947 4.60538C7.52729 4.12775 7.81726 3.69376 8.18281 3.3282C8.54837 2.96264 8.98236 2.67267 9.45999 2.47486C9.93763 2.27704 10.4496 2.17525 10.9665 2.17529H11.8709V34.9515Z" fill="#FEDB41"/>
<path d="M39.3683 1.49415H10.9665C10.3584 1.49234 9.75591 1.61036 9.19345 1.84148C8.631 2.0726 8.1196 2.41229 7.68847 2.84113C7.25735 3.26997 6.91495 3.77955 6.68085 4.34077C6.44674 4.90199 6.32551 5.50384 6.3241 6.11193V38.7264C6.3241 38.7415 6.32594 38.7563 6.32682 38.7712C6.32585 38.81 6.32612 38.8488 6.32612 38.8881C6.32665 39.4963 6.4472 40.0984 6.68086 40.6598C6.91453 41.2213 7.25671 41.7312 7.6878 42.1602C8.11889 42.5892 8.6304 42.9289 9.19303 43.1598C9.75565 43.3907 10.3583 43.5083 10.9665 43.5059H37.2686C37.3594 43.5082 37.4497 43.4923 37.5343 43.459C37.6188 43.4258 37.6958 43.376 37.7607 43.3125C37.8256 43.2489 37.8771 43.173 37.9121 43.0893C37.9472 43.0055 37.9651 42.9155 37.9647 42.8247V35.6836H39.3683C39.558 35.6774 39.7377 35.5976 39.8695 35.4611C40.0013 35.3246 40.0747 35.1421 40.0741 34.9524V2.1753C40.0733 2.08398 40.0544 1.99372 40.0184 1.90981C39.9823 1.82589 39.9299 1.75001 39.8642 1.68658C39.7985 1.62316 39.7208 1.57348 39.6356 1.54044C39.5505 1.5074 39.4596 1.49166 39.3683 1.49415ZM7.73035 6.11193C7.73156 5.68845 7.81626 5.26937 7.97963 4.87867C8.14299 4.48797 8.38179 4.13332 8.68238 3.83503C8.98296 3.53673 9.33942 3.30064 9.73136 3.14026C10.1233 2.97989 10.543 2.89838 10.9665 2.9004H11.1581V34.2774H10.9665C9.76417 34.2722 8.60576 34.7288 7.73035 35.5529V6.11193ZM36.5585 42.0996H10.9665C10.5426 42.102 10.1224 42.0206 9.73012 41.8599C9.33782 41.6993 8.98116 41.4627 8.68064 41.1638C8.38013 40.8648 8.14169 40.5094 7.97906 40.1179C7.81642 39.7265 7.73279 39.3067 7.73298 38.8828C7.73298 38.8401 7.7336 38.8149 7.73588 38.7662C7.76844 37.9334 8.12384 37.1459 8.72683 36.5706C9.32982 35.9952 10.1331 35.6771 10.9665 35.6836H36.5585V42.0996ZM38.6678 34.2774H12.5643V2.9004H38.6678V34.2774Z" fill="#083863"/>
<path d="M14.2949 27.7356C15.2245 27.7356 15.6624 27.9435 16.1694 28.1844C16.7465 28.4585 17.4006 28.7692 18.6472 28.7692C19.8939 28.7692 20.5479 28.4585 21.125 28.1844C21.6321 27.9435 22.07 27.7356 22.9996 27.7356C23.9292 27.7356 24.3679 27.9436 24.875 28.1845C25.4522 28.4586 26.1063 28.7692 27.3528 28.7692C28.5993 28.7692 29.2533 28.4586 29.8304 28.1845C30.3377 27.9436 30.7758 27.7356 31.706 27.7356C32.6363 27.7356 33.0735 27.9435 33.5805 28.1844C34.1576 28.4585 34.8117 28.7692 36.0584 28.7692C36.2448 28.7692 36.4237 28.6951 36.5555 28.5632C36.6874 28.4314 36.7615 28.2525 36.7615 28.0661C36.7615 27.8796 36.6874 27.7007 36.5555 27.5689C36.4237 27.437 36.2448 27.3629 36.0584 27.3629C35.1287 27.3629 34.6909 27.155 34.1838 26.9142C33.6067 26.64 32.9527 26.3293 31.706 26.3293C30.4594 26.3293 29.8045 26.64 29.2275 26.9142C28.7204 27.155 28.2825 27.3629 27.3531 27.3629C26.4236 27.3629 25.9856 27.155 25.4786 26.9142C24.9013 26.64 24.247 26.3293 23.0001 26.3293C21.7532 26.3293 21.0994 26.64 20.5222 26.9142C20.0152 27.155 19.5773 27.3629 18.6478 27.3629C17.7182 27.3629 17.2803 27.155 16.7733 26.9142C16.1961 26.64 15.5421 26.3293 14.2954 26.3293C14.1089 26.3293 13.9301 26.4034 13.7982 26.5353C13.6664 26.6671 13.5923 26.846 13.5923 27.0325C13.5923 27.219 13.6664 27.3978 13.7982 27.5297C13.9301 27.6615 14.1089 27.7356 14.2954 27.7356H14.2949Z" fill="#083863"/>
<path d="M14.2949 25.6676C14.7288 25.6565 15.1613 25.7213 15.5729 25.8592C15.7761 25.9342 15.9751 26.02 16.169 26.1164C16.7463 26.3905 17.4006 26.7012 18.6475 26.7012C19.8945 26.7012 20.5483 26.3905 21.1253 26.1164C21.6324 25.8756 22.0703 25.6676 22.9999 25.6676C23.9295 25.6676 24.3682 25.8757 24.8754 26.1165C25.4526 26.3906 26.1066 26.7012 27.3531 26.7012C28.5996 26.7012 29.2537 26.3906 29.8308 26.1165C30.3381 25.8757 30.7761 25.6676 31.7063 25.6676C32.6349 25.6676 33.0726 25.8754 33.5794 26.1159C33.7457 26.195 33.9178 26.2765 34.1114 26.354C34.7311 26.5975 35.393 26.7155 36.0587 26.7011C36.2452 26.7011 36.424 26.6271 36.5559 26.4952C36.6877 26.3633 36.7618 26.1845 36.7618 25.998C36.7618 25.8115 36.6877 25.6327 36.5559 25.5008C36.424 25.369 36.2452 25.2949 36.0587 25.2949C35.8705 25.2955 35.6823 25.2857 35.4952 25.2654C35.7927 24.6738 35.9463 24.0203 35.9435 23.3581V21.0833C35.9452 20.9924 35.9287 20.9022 35.895 20.8178C35.8613 20.7334 35.811 20.6567 35.747 20.5921C35.6831 20.5275 35.6069 20.4764 35.5229 20.4418C35.4389 20.4072 35.3488 20.3898 35.2579 20.3907H25.8358V18.4571H32.1164C32.2392 18.4607 32.3606 18.4312 32.468 18.3717C32.5754 18.3122 32.6647 18.2248 32.7267 18.1189C32.7887 18.0129 32.821 17.8922 32.8203 17.7694C32.8195 17.6466 32.7857 17.5263 32.7224 17.4211L25.8327 5.7163C25.765 5.60181 25.6662 5.50891 25.5478 5.44841C25.4294 5.38791 25.2962 5.3623 25.1638 5.37458C25.0283 5.38627 24.8988 5.43532 24.7896 5.51627C24.6803 5.59723 24.5957 5.70691 24.5452 5.8331L24.4295 6.08983L24.4497 6.15215H24.4295V6.20725L20.2645 17.543C20.2254 17.6466 20.2126 17.7583 20.2271 17.8681C20.2417 17.9778 20.2832 18.0823 20.3479 18.1722C20.4135 18.263 20.5004 18.3364 20.6009 18.386C20.7013 18.4357 20.8124 18.4601 20.9244 18.4571H24.4295V20.3907H15.303C15.1161 20.3878 14.9357 20.4591 14.8013 20.5889C14.6669 20.7187 14.5894 20.8964 14.5858 21.0833V23.3579C14.5886 23.6663 14.6251 23.9735 14.6947 24.274C14.5628 24.2661 14.432 24.2614 14.2913 24.2614C14.199 24.2616 14.1076 24.28 14.0224 24.3156C13.9372 24.3511 13.8598 24.4031 13.7947 24.4686C13.7295 24.534 13.6779 24.6117 13.6428 24.6971C13.6077 24.7825 13.5897 24.8739 13.59 24.9663C13.5902 25.0586 13.6086 25.15 13.6442 25.2352C13.6797 25.3204 13.7317 25.3978 13.7972 25.4629C13.8626 25.5281 13.9402 25.5797 14.0256 25.6148C14.111 25.6499 14.2025 25.6679 14.2949 25.6676ZM25.8358 17.0508V8.49839L30.8869 17.0508H25.8358ZM21.9318 17.0508L24.4295 10.2849V17.0508H21.9318ZM15.992 21.7969H34.5369V23.3579C34.54 23.8752 34.3997 24.3833 34.1315 24.8256C33.5646 24.5569 32.9173 24.2612 31.7016 24.2612C30.4545 24.2612 29.8023 24.5719 29.225 24.846C28.718 25.0869 28.2811 25.2948 27.3516 25.2948C26.4222 25.2948 25.9847 25.0869 25.4777 24.846C24.9004 24.5719 24.2464 24.2612 22.9992 24.2612C21.752 24.2612 21.0986 24.5719 20.5215 24.846C20.0144 25.0869 19.5765 25.2948 18.647 25.2948C17.7175 25.2948 17.2793 25.0868 16.772 24.846C16.6266 24.7769 16.4694 24.7066 16.3071 24.6389C16.1022 24.2428 15.9942 23.8038 15.992 23.3579V21.7969ZM36.0583 29.4311C35.1287 29.4311 34.6908 29.2232 34.1838 28.9823C33.6067 28.7082 32.9526 28.3975 31.706 28.3975C30.4593 28.3975 29.8045 28.7082 29.2275 28.9823C28.7204 29.2232 28.2825 29.4311 27.353 29.4311C26.4236 29.4311 25.9855 29.2232 25.4786 28.9823C24.9012 28.7082 24.2469 28.3975 23.0001 28.3975C21.7532 28.3975 21.0993 28.7082 20.5222 28.9823C20.0152 29.2232 19.5773 29.4311 18.6477 29.4311C17.7182 29.4311 17.2802 29.2232 16.7733 28.9823C16.1961 28.7082 15.542 28.3975 14.2954 28.3975C14.1089 28.3975 13.9301 28.4716 13.7982 28.6035C13.6663 28.7353 13.5923 28.9142 13.5923 29.1007C13.5923 29.2871 13.6663 29.466 13.7982 29.5978C13.9301 29.7297 14.1089 29.8038 14.2954 29.8038C15.225 29.8038 15.6629 30.0117 16.1699 30.2526C16.747 30.5267 17.4011 30.8374 18.6477 30.8374C19.8944 30.8374 20.5484 30.5267 21.1254 30.2526C21.6326 30.0117 22.0704 29.8038 23.0001 29.8038C23.9297 29.8038 24.3683 30.0118 24.8756 30.2527C25.4527 30.5268 26.1068 30.8374 27.3533 30.8374C28.5998 30.8374 29.2538 30.5268 29.8309 30.2527C30.3382 30.0118 30.7763 29.8038 31.7065 29.8038C32.6367 29.8038 33.074 30.0117 33.581 30.2526C34.1581 30.5267 34.8122 30.8374 36.0589 30.8374C36.2453 30.8374 36.4242 30.7633 36.556 30.6314C36.6879 30.4996 36.762 30.3207 36.762 30.1342C36.762 29.9478 36.6879 29.7689 36.556 29.6371C36.4242 29.5052 36.2453 29.4311 36.0589 29.4311H36.0583Z" fill="#083863"/>
</svg>
