<svg width="29" height="25" viewBox="0 0 29 25" fill="none" xmlns="http://www.w3.org/2000/svg">
<path d="M27.4571 9.91376C27.0648 9.5116 26.5739 9.18786 26.0191 8.9654C25.4642 8.74294 24.859 8.62718 24.246 8.62628H17.8797L18.6615 6.92157C18.9867 6.17518 19.095 5.37256 18.9772 4.58257C18.8593 3.79258 18.5187 3.0388 17.9847 2.38589C17.4507 1.73297 16.7391 1.20042 15.9111 0.833901C15.0831 0.467384 14.1633 0.277847 13.2306 0.281547C12.9621 0.282026 12.6994 0.348633 12.474 0.473384C12.2487 0.598135 12.0703 0.775734 11.9602 0.984889L7.98121 8.62628H4.70033C3.5895 8.62628 2.52418 9.00307 1.73871 9.67376C0.953236 10.3445 0.511963 11.2541 0.511963 12.2026V20.5473C0.511963 21.4958 0.953236 22.4055 1.73871 23.0762C2.52418 23.7469 3.5895 24.1237 4.70033 24.1237H22.473C23.4528 24.1234 24.4015 23.8298 25.154 23.294C25.9065 22.7582 26.4151 22.014 26.5915 21.1911L28.3646 12.8463C28.4743 12.3306 28.4498 11.8006 28.293 11.2938C28.1362 10.7871 27.8508 10.3159 27.4571 9.91376ZM7.49257 21.7394H4.70033C4.33005 21.7394 3.97494 21.6138 3.71312 21.3903C3.4513 21.1667 3.30421 20.8635 3.30421 20.5473V12.2026C3.30421 11.8864 3.4513 11.5832 3.71312 11.3597C3.97494 11.1361 4.33005 11.0105 4.70033 11.0105H7.49257V21.7394ZM25.6421 12.4172L23.8691 20.7619C23.8096 21.0396 23.6366 21.2903 23.381 21.4693C23.1253 21.6483 22.8035 21.744 22.473 21.7394H10.2848V10.0687L14.0823 2.77305C14.4732 2.87035 14.8362 3.0358 15.1484 3.25893C15.4607 3.48206 15.7153 3.75804 15.8964 4.06945C16.0774 4.38086 16.1809 4.72094 16.2003 5.06821C16.2196 5.41548 16.1545 5.76241 16.0089 6.0871L15.269 7.79181C15.1113 8.15213 15.0581 8.53967 15.1138 8.92137C15.1696 9.30306 15.3327 9.66757 15.5891 9.98378C15.8456 10.3 16.1879 10.5585 16.5868 10.7373C16.9856 10.9161 17.4292 11.0098 17.8797 11.0105H24.246C24.4511 11.0102 24.6538 11.0485 24.8396 11.1227C25.0254 11.1969 25.1898 11.3051 25.321 11.4397C25.4555 11.5724 25.554 11.7288 25.6096 11.8978C25.6651 12.0667 25.6762 12.2441 25.6421 12.4172Z" fill="black"/>
</svg>
